<?xml version="1.0" encoding="utf-8" ?>
<svg baseProfile="full" height="1024" version="1.1" viewBox="0 0 1024 1024" width="1024" xmlns="http://www.w3.org/2000/svg" xmlns:ev="http://www.w3.org/2001/xml-events" xmlns:xlink="http://www.w3.org/1999/xlink"><defs /><polygon fill="black" points="705,763 704,764 703,764 700,767 700,773 704,777 710,777 713,774 713,773 714,772 714,769 713,768 713,766 711,764 710,764 709,763" /><polygon fill="black" points="774,732 774,768 775,769 775,770 776,771 776,772 779,775 780,775 781,776 782,776 783,777 792,777 793,776 795,776 796,775 797,775 802,770 803,771 803,775 804,776 815,776 815,732 802,732 802,761 801,762 801,763 799,765 798,765 797,766 796,766 795,767 791,767 790,766 789,766 787,764 787,763 786,762 786,732" /><polygon fill="black" points="573,732 573,733 572,734 573,735 573,776 585,776 585,733 584,732" /><polygon fill="black" points="739,731 738,732 736,732 735,733 733,733 731,735 730,735 725,740 725,741 724,742 724,743 723,744 723,745 722,746 722,750 721,751 721,757 722,758 722,762 723,763 723,765 724,766 724,767 727,770 727,771 728,772 729,772 731,774 732,774 733,775 734,775 735,776 737,776 738,777 750,777 751,776 753,776 754,775 755,775 756,774 757,774 762,769 762,768 763,767 763,766 764,765 764,764 757,764 756,763 753,763 749,767 747,767 746,768 742,768 741,767 739,767 735,763 735,762 734,761 734,759 735,758 765,758 765,748 764,747 764,745 763,744 763,742 761,740 761,739 757,735 756,735 754,733 752,733 751,732 749,732 748,731" /><polygon fill="black" points="690,732 678,732 678,737 677,738 675,736 675,735 674,734 673,734 672,733 671,733 670,732 668,732 667,731 661,731 660,732 657,732 656,733 655,733 649,739 649,740 648,741 648,742 647,743 647,745 646,746 646,760 647,761 647,763 648,764 648,765 649,766 649,767 650,768 650,769 652,771 653,771 655,773 656,773 657,774 659,774 660,775 667,775 668,774 670,774 671,773 672,773 674,771 675,771 675,770 676,769 677,770 677,780 676,781 676,782 675,783 674,783 672,785 663,785 658,780 658,779 657,779 656,780 652,780 651,781 648,781 647,782 648,783 648,784 649,785 649,786 650,787 650,788 652,790 653,790 654,791 655,791 656,792 657,792 658,793 661,793 662,794 673,794 674,793 677,793 678,792 680,792 682,790 683,790 686,787 686,786 687,785 687,784 688,783 688,782 689,781 689,774 690,773" /><polygon fill="black" points="631,733 630,733 629,732 627,732 626,731 619,731 618,732 616,732 615,733 614,733 613,734 612,734 610,736 610,737 609,738 608,737 608,736 607,735 608,734 607,733 607,732 596,732 596,776 608,776 608,748 609,747 609,746 613,742 615,742 616,741 618,741 619,742 621,742 624,745 624,747 625,748 625,776 637,776 637,743 636,742 636,740 635,739 635,737" /><polygon fill="black" points="486,731 485,732 483,732 482,733 480,733 479,734 478,734 472,740 472,741 470,743 470,745 469,746 469,749 468,750 468,759 469,760 469,763 470,764 470,765 471,766 471,767 473,769 473,770 476,773 477,773 479,775 481,775 482,776 484,776 485,777 497,777 498,776 500,776 501,775 502,775 503,774 504,774 509,769 509,768 510,767 510,766 511,765 511,764 503,764 502,763 500,763 496,767 495,767 494,768 488,768 487,767 486,767 485,766 484,766 482,764 482,763 481,762 481,760 480,759 481,758 511,758 512,757 512,748 511,747 511,745 510,744 510,742 508,740 508,739 504,735 503,735 501,733 499,733 498,732 496,732 495,731" /><polygon fill="black" points="434,732 433,733 432,733 431,734 430,734 429,735 428,735 427,736 427,737 425,739 425,741 424,742 424,748 425,749 425,751 429,755 430,755 431,756 432,756 433,757 435,757 436,758 439,758 440,759 443,759 444,760 447,760 450,763 450,766 449,767 448,767 447,768 445,768 444,769 442,769 441,768 438,768 437,767 436,767 434,765 434,764 433,763 433,762 432,763 428,763 427,764 423,764 423,767 424,768 424,769 426,771 426,772 427,772 430,775 432,775 433,776 435,776 436,777 450,777 451,776 453,776 454,775 455,775 461,769 461,767 462,766 462,760 461,759 461,757 457,753 456,753 455,752 454,752 453,751 451,751 450,750 447,750 446,749 442,749 441,748 439,748 438,747 437,747 436,746 436,742 437,741 438,741 439,740 445,740 446,741 447,741 451,745 453,745 454,744 457,744 458,743 461,743 460,742 460,740 459,739 459,738 455,734 454,734 453,733 452,733 451,732 448,732 447,731 438,731 437,732" /><polygon fill="black" points="383,731 379,731 378,732 376,732 375,733 374,733 371,736 371,737 370,738 368,736 368,732 357,732 357,776 369,776 369,750 370,749 370,747 373,744 374,744 375,743 377,743 378,742 382,742 383,743 384,743 384,732" /><polygon fill="black" points="314,733 312,735 311,735 306,740 306,741 305,742 305,743 304,744 304,746 303,747 303,751 302,752 302,756 303,757 303,762 304,763 304,764 305,765 305,766 306,767 306,768 312,774 313,774 314,775 315,775 316,776 318,776 319,777 331,777 332,776 334,776 335,775 336,775 337,774 338,774 344,768 344,767 345,766 345,765 346,764 346,762 347,761 347,747 346,746 346,744 345,743 345,742 343,740 343,739 339,735 338,735 337,734 336,734 335,733 334,733 333,732 330,732 329,731 321,731 320,732 317,732 316,733" /><polygon fill="black" points="214,733 212,735 211,735 209,737 209,738 208,739 208,740 207,741 207,749 208,750 208,751 212,755 213,755 214,756 215,756 216,757 218,757 219,758 221,758 222,759 226,759 227,760 229,760 230,761 231,761 232,762 232,763 233,764 232,765 232,766 230,768 227,768 226,769 225,768 221,768 220,767 219,767 216,764 216,763 215,762 214,763 211,763 210,764 206,764 206,767 207,768 207,769 208,770 208,771 210,773 211,773 213,775 214,775 215,776 218,776 219,777 232,777 233,776 235,776 236,775 237,775 238,774 239,774 243,770 243,769 244,768 244,759 243,758 243,757 242,756 242,755 241,754 240,754 238,752 236,752 235,751 234,751 233,750 229,750 228,749 224,749 223,748 221,748 219,746 219,745 218,744 219,743 219,742 220,741 221,741 222,740 228,740 229,741 230,741 233,744 233,745 235,745 236,744 242,744 243,743 243,742 242,741 242,739 236,733 234,733 233,732 230,732 229,731 221,731 220,732 217,732 216,733" /><polygon fill="black" points="398,719 397,720 396,720 396,731 395,732 388,732 388,741 389,742 395,742 396,743 396,770 397,771 397,772 401,776 403,776 404,777 413,777 414,776 417,776 418,775 418,773 417,772 417,767 416,766 414,766 413,767 412,767 411,766 410,766 408,764 408,743 409,742 416,742 417,741 417,732 409,732 408,731 408,720 407,719" /><polygon fill="black" points="547,715 546,716 546,767 547,768 547,771 548,772 548,773 551,776 553,776 554,777 562,777 563,776 565,776 566,775 566,774 565,773 565,766 563,766 562,767 561,766 560,766 559,765 559,716 558,715 557,716 556,715 552,715 551,716 550,715 549,716 548,716" /><polygon fill="black" points="521,716 521,771 522,772 522,773 524,775 525,775 526,776 527,776 528,777 536,777 537,776 540,776 540,769 539,768 539,766 535,766 533,764 533,716 532,715 531,716 527,716 526,715 525,716" /><polygon fill="black" points="253,716 253,776 265,776 265,748 266,747 266,746 269,743 270,743 271,742 278,742 281,745 281,746 282,747 282,776 294,776 294,743 293,742 293,739 292,738 292,737 288,733 287,733 286,732 284,732 283,731 277,731 276,732 273,732 272,733 271,733 266,738 265,737 265,716 264,715 256,715 255,716" /><polygon fill="black" points="574,714 572,716 572,718 571,719 571,720 572,721 572,723 574,725 575,725 576,726 582,726 585,723 585,717 584,716 584,715 583,715 581,713 576,713 575,714" /><polygon fill="black" points="290,540 291,543 511,697 733,542 702,409 697,413 687,463 680,475 670,484 648,492 625,495 592,494 572,489 583,541 584,560 579,571 560,590 512,569 545,548 555,529 549,514 537,500 522,497 486,500 468,526 475,545 511,570 466,590 459,587 444,571 439,560 440,540 451,489 431,494 397,495 374,492 353,484 337,466 331,447 326,413 322,409" /><polygon fill="black" points="321,374 321,398 327,402 334,411 340,449 347,467 353,474 363,480 389,486 428,486 448,482 462,476 475,464 481,455 496,417 503,410 511,408 521,411 526,416 544,458 549,465 563,477 582,484 612,487 633,486 654,482 670,474 676,467 684,445 689,411 691,407 702,398 702,374 679,369 634,364 599,364 576,367 553,373 528,384 520,385 496,384 463,371 440,366 420,364 389,364 366,366" /><polygon fill="black" points="299,280 300,293 304,307 318,333 334,354 332,363 384,356 426,356 454,360 475,366 497,376 510,377 526,376 560,362 594,356 639,356 691,363 689,354 700,340 715,316 721,301 724,285 723,272 720,262 710,244 696,231 677,224 656,225 639,232 620,246 600,266 577,258 546,254 476,254 448,258 422,266 407,250 384,232 367,225 347,224 331,229 322,235 313,244 302,264" /></svg>