<?xml version="1.0" encoding="utf-8" ?>
<svg baseProfile="full" height="1024" version="1.1" viewBox="0 0 1024 1024" width="1024" xmlns="http://www.w3.org/2000/svg" xmlns:ev="http://www.w3.org/2001/xml-events" xmlns:xlink="http://www.w3.org/1999/xlink"><defs /><path d="M 705 763 L 704 764 L 703 764 L 700 767 L 700 773 L 704 777 L 710 777 L 713 774 L 713 773 L 714 772 L 714 769 L 713 768 L 713 766 L 711 764 L 710 764 L 709 763 Z" fill-rule="evenodd" stroke="none" /><path d="M 774 732 L 774 768 L 776 772 L 779 775 L 783 777 L 792 777 L 793 776 L 795 776 L 797 775 L 800 772 L 802 772 L 804 776 L 814 776 L 815 775 L 815 733 L 814 732 L 803 732 L 802 733 L 802 761 L 799 765 L 795 767 L 791 767 L 789 766 L 786 762 L 786 733 L 785 732 Z" fill-rule="evenodd" stroke="none" /><path d="M 573 732 L 573 776 L 584 776 L 585 775 L 585 734 L 583 732 Z" fill-rule="evenodd" stroke="none" /><path d="M 739 731 L 738 732 L 733 733 L 731 735 L 730 735 L 725 740 L 725 741 L 722 746 L 722 750 L 721 751 L 721 758 L 722 759 L 722 762 L 723 763 L 723 765 L 724 766 L 724 767 L 727 770 L 727 771 L 731 774 L 732 774 L 735 776 L 737 776 L 738 777 L 750 777 L 751 776 L 753 776 L 754 775 L 757 774 L 762 769 L 762 768 L 763 767 L 763 764 L 757 764 L 756 763 L 753 763 L 750 766 L 749 766 L 746 768 L 742 768 L 741 767 L 739 767 L 735 763 L 735 762 L 734 761 L 734 759 L 735 758 L 764 758 L 765 757 L 765 748 L 764 747 L 763 742 L 761 740 L 761 739 L 757 735 L 756 735 L 754 733 L 752 733 L 751 732 L 749 732 L 748 731 Z M 734 747 L 735 746 L 735 745 L 739 741 L 741 741 L 742 740 L 745 740 L 746 741 L 748 741 L 752 745 L 752 749 L 751 750 L 735 750 L 734 749 Z" fill-rule="evenodd" stroke="none" /><path d="M 661 731 L 660 732 L 657 732 L 655 733 L 649 739 L 647 743 L 647 745 L 646 746 L 646 760 L 647 761 L 648 766 L 650 768 L 650 769 L 657 774 L 659 774 L 660 775 L 667 775 L 668 774 L 672 773 L 674 771 L 676 771 L 677 772 L 677 780 L 671 785 L 664 785 L 658 780 L 652 780 L 651 781 L 648 781 L 648 784 L 650 788 L 655 792 L 661 793 L 662 794 L 673 794 L 674 793 L 677 793 L 678 792 L 682 791 L 686 787 L 689 781 L 689 775 L 690 774 L 690 734 L 689 732 L 678 732 L 678 734 L 677 735 L 674 735 L 672 733 L 668 732 L 667 731 Z M 667 741 L 669 741 L 670 742 L 672 742 L 673 743 L 674 743 L 675 744 L 675 745 L 677 747 L 677 760 L 673 764 L 672 764 L 671 765 L 665 765 L 664 764 L 663 764 L 659 760 L 659 758 L 658 757 L 658 750 L 659 749 L 659 747 L 664 742 L 666 742 Z" fill-rule="evenodd" stroke="none" /><path d="M 631 733 L 629 732 L 627 732 L 626 731 L 619 731 L 611 735 L 608 735 L 607 734 L 607 732 L 597 732 L 596 733 L 596 776 L 608 776 L 608 749 L 609 748 L 609 746 L 612 743 L 614 742 L 621 742 L 624 745 L 624 748 L 625 749 L 625 776 L 636 776 L 637 775 L 637 743 L 636 742 L 635 737 Z" fill-rule="evenodd" stroke="none" /><path d="M 482 732 L 481 733 L 478 734 L 471 741 L 471 742 L 470 743 L 470 745 L 469 746 L 469 748 L 468 749 L 468 759 L 469 760 L 469 763 L 470 764 L 471 767 L 473 769 L 473 770 L 479 775 L 481 775 L 482 776 L 484 776 L 485 777 L 497 777 L 498 776 L 500 776 L 501 775 L 504 774 L 509 769 L 509 768 L 510 767 L 510 764 L 504 764 L 503 763 L 500 763 L 496 767 L 494 767 L 493 768 L 488 768 L 483 765 L 483 764 L 481 762 L 481 759 L 482 758 L 511 758 L 512 757 L 512 748 L 511 747 L 510 742 L 508 740 L 508 739 L 504 735 L 503 735 L 501 733 L 499 733 L 498 732 L 496 732 L 495 731 L 486 731 L 485 732 Z M 481 746 L 486 741 L 488 741 L 489 740 L 492 740 L 493 741 L 495 741 L 499 745 L 499 749 L 498 750 L 483 750 L 481 748 Z" fill-rule="evenodd" stroke="none" /><path d="M 434 732 L 428 735 L 425 739 L 425 741 L 424 742 L 424 748 L 425 749 L 425 751 L 429 755 L 433 757 L 435 757 L 436 758 L 439 758 L 440 759 L 443 759 L 444 760 L 448 761 L 450 763 L 450 765 L 447 768 L 442 769 L 441 768 L 438 768 L 433 763 L 428 763 L 427 764 L 423 764 L 423 767 L 426 771 L 426 772 L 427 772 L 430 775 L 432 775 L 436 777 L 450 777 L 451 776 L 453 776 L 455 775 L 461 769 L 461 767 L 462 766 L 462 760 L 461 759 L 461 757 L 457 753 L 453 751 L 439 748 L 436 745 L 436 743 L 439 740 L 445 740 L 447 741 L 451 745 L 453 745 L 454 744 L 457 744 L 458 743 L 460 743 L 460 740 L 459 738 L 455 734 L 451 732 L 448 732 L 447 731 L 438 731 L 437 732 Z" fill-rule="evenodd" stroke="none" /><path d="M 384 732 L 383 732 L 382 731 L 379 731 L 378 732 L 376 732 L 375 733 L 374 733 L 371 736 L 369 736 L 368 735 L 368 733 L 367 732 L 357 732 L 357 776 L 368 776 L 369 775 L 369 750 L 370 749 L 370 748 L 371 747 L 371 746 L 372 745 L 373 745 L 375 743 L 377 743 L 378 742 L 384 742 Z" fill-rule="evenodd" stroke="none" /><path d="M 314 733 L 312 735 L 311 735 L 306 740 L 306 741 L 304 744 L 304 746 L 303 747 L 303 752 L 302 753 L 302 756 L 303 757 L 303 762 L 304 763 L 304 764 L 305 765 L 305 766 L 306 767 L 306 768 L 312 774 L 313 774 L 316 776 L 318 776 L 319 777 L 331 777 L 332 776 L 334 776 L 335 775 L 336 775 L 337 774 L 338 774 L 344 768 L 344 767 L 346 764 L 346 762 L 347 761 L 347 747 L 346 746 L 346 744 L 345 743 L 345 742 L 343 740 L 343 739 L 339 735 L 338 735 L 337 734 L 336 734 L 333 732 L 330 732 L 329 731 L 321 731 L 320 732 L 317 732 L 316 733 Z M 323 741 L 327 741 L 328 742 L 329 742 L 334 747 L 334 749 L 335 750 L 335 758 L 334 759 L 334 761 L 333 762 L 333 763 L 330 766 L 329 766 L 328 767 L 322 767 L 321 766 L 320 766 L 317 763 L 317 762 L 316 761 L 316 759 L 315 758 L 315 751 L 316 750 L 316 748 L 317 747 L 317 746 L 321 742 L 322 742 Z" fill-rule="evenodd" stroke="none" /><path d="M 214 733 L 209 737 L 207 741 L 207 749 L 208 751 L 213 756 L 215 756 L 218 758 L 221 758 L 222 759 L 226 759 L 227 760 L 229 760 L 232 763 L 232 766 L 230 768 L 221 768 L 219 767 L 216 764 L 216 763 L 211 763 L 210 764 L 207 764 L 206 765 L 206 767 L 208 771 L 213 775 L 215 776 L 218 776 L 219 777 L 232 777 L 233 776 L 235 776 L 239 774 L 243 770 L 244 768 L 244 759 L 242 755 L 238 752 L 236 752 L 233 750 L 229 750 L 228 749 L 225 749 L 224 748 L 222 748 L 219 746 L 219 743 L 223 740 L 228 740 L 230 741 L 234 745 L 236 745 L 237 744 L 241 744 L 242 743 L 242 739 L 237 734 L 233 732 L 230 732 L 229 731 L 221 731 L 220 732 L 217 732 L 216 733 Z" fill-rule="evenodd" stroke="none" /><path d="M 399 719 L 398 720 L 396 720 L 396 729 L 395 730 L 395 731 L 394 732 L 389 732 L 388 733 L 388 741 L 389 742 L 394 742 L 396 744 L 396 770 L 397 771 L 397 772 L 401 776 L 403 776 L 404 777 L 413 777 L 414 776 L 416 776 L 418 774 L 418 772 L 417 771 L 417 767 L 416 766 L 410 766 L 408 764 L 408 743 L 409 742 L 415 742 L 417 740 L 417 733 L 416 732 L 409 732 L 408 731 L 408 720 L 407 720 L 406 719 Z" fill-rule="evenodd" stroke="none" /><path d="M 521 716 L 521 771 L 522 772 L 522 773 L 524 775 L 525 775 L 528 777 L 536 777 L 537 776 L 539 776 L 540 775 L 540 769 L 538 766 L 535 766 L 533 764 L 533 717 L 532 716 Z" fill-rule="evenodd" stroke="none" /><path d="M 549 715 L 546 717 L 546 767 L 547 768 L 547 771 L 548 772 L 548 773 L 551 776 L 553 776 L 554 777 L 562 777 L 563 776 L 565 776 L 565 767 L 564 766 L 561 766 L 559 764 L 559 718 L 558 717 L 558 716 L 557 716 L 556 715 Z" fill-rule="evenodd" stroke="none" /><path d="M 253 716 L 253 776 L 265 776 L 265 749 L 266 748 L 266 746 L 271 742 L 278 742 L 281 745 L 281 747 L 282 748 L 282 776 L 294 776 L 294 743 L 293 742 L 293 739 L 292 737 L 288 733 L 286 732 L 283 732 L 282 731 L 277 731 L 276 732 L 273 732 L 269 735 L 266 735 L 265 734 L 265 716 L 263 715 Z" fill-rule="evenodd" stroke="none" /><path d="M 574 714 L 573 715 L 573 716 L 572 717 L 572 723 L 574 725 L 575 725 L 576 726 L 582 726 L 585 723 L 585 717 L 582 714 L 581 714 L 580 713 L 576 713 L 575 714 Z" fill-rule="evenodd" stroke="none" /><path d="M 291 537 L 297 547 L 510 696 L 732 542 L 702 410 L 697 413 L 688 461 L 670 484 L 627 495 L 572 490 L 584 560 L 560 590 L 513 570 L 541 551 L 554 532 L 543 506 L 535 499 L 519 497 L 485 501 L 469 523 L 476 546 L 510 570 L 466 590 L 460 588 L 439 561 L 451 490 L 395 495 L 354 485 L 336 464 L 323 410 Z M 468 592 L 469 591 L 554 591 L 555 592 L 555 594 L 542 604 L 541 604 L 540 605 L 539 605 L 537 607 L 536 607 L 535 608 L 533 608 L 530 610 L 528 610 L 527 611 L 525 611 L 524 612 L 520 612 L 519 613 L 504 613 L 503 612 L 499 612 L 498 611 L 496 611 L 495 610 L 493 610 L 492 609 L 491 609 L 490 608 L 489 608 L 488 607 L 487 607 L 486 606 L 481 604 L 475 599 L 474 599 L 472 597 L 471 597 L 468 594 Z M 521 528 L 523 526 L 524 526 L 525 525 L 529 525 L 530 526 L 531 526 L 546 541 L 546 543 L 545 544 L 526 544 L 525 543 L 524 543 L 520 539 L 520 537 L 519 536 L 519 533 L 520 532 L 520 530 L 521 529 Z M 503 529 L 503 530 L 504 531 L 504 537 L 503 538 L 503 539 L 502 540 L 502 541 L 501 542 L 500 542 L 499 543 L 498 543 L 497 544 L 478 544 L 477 543 L 477 541 L 492 526 L 493 526 L 494 525 L 499 525 Z" fill-rule="evenodd" stroke="none" /><path d="M 321 375 L 321 397 L 334 411 L 340 449 L 347 467 L 363 480 L 389 486 L 428 486 L 462 476 L 478 460 L 497 416 L 506 409 L 517 409 L 526 416 L 548 464 L 569 480 L 610 487 L 654 482 L 669 475 L 676 467 L 684 445 L 689 411 L 702 398 L 701 374 L 634 364 L 581 366 L 519 385 L 496 384 L 463 371 L 421 364 L 366 366 Z M 543 395 L 548 389 L 557 384 L 568 380 L 588 376 L 630 375 L 631 376 L 646 377 L 658 380 L 666 384 L 671 389 L 675 399 L 675 427 L 672 445 L 669 454 L 665 461 L 658 468 L 646 473 L 636 475 L 604 476 L 603 475 L 594 475 L 583 473 L 572 469 L 566 465 L 558 457 L 548 439 L 541 414 L 541 400 Z M 561 393 L 561 397 L 567 404 L 569 408 L 581 424 L 583 424 L 586 422 L 591 417 L 595 416 L 599 420 L 601 424 L 612 438 L 616 437 L 622 431 L 626 430 L 639 446 L 639 449 L 636 451 L 636 453 L 642 454 L 649 457 L 653 457 L 653 440 L 651 440 L 649 442 L 646 442 L 628 418 L 625 418 L 618 425 L 613 426 L 597 404 L 594 404 L 587 411 L 583 412 L 579 408 L 577 404 L 568 392 L 563 392 Z M 352 389 L 362 381 L 371 378 L 391 376 L 392 375 L 433 376 L 450 379 L 466 384 L 475 389 L 482 399 L 481 420 L 473 444 L 466 456 L 459 464 L 449 470 L 440 473 L 430 475 L 421 475 L 420 476 L 396 476 L 373 472 L 365 468 L 358 461 L 354 454 L 351 445 L 348 427 L 348 399 Z" fill-rule="evenodd" stroke="none" /><path d="M 300 272 L 303 304 L 315 328 L 334 354 L 333 363 L 382 356 L 428 356 L 463 362 L 498 376 L 525 376 L 556 363 L 593 356 L 641 356 L 690 363 L 689 354 L 711 323 L 723 292 L 723 273 L 712 247 L 694 230 L 676 224 L 662 224 L 641 231 L 601 265 L 556 255 L 479 254 L 448 258 L 424 266 L 382 231 L 366 225 L 348 224 L 322 235 L 307 253 Z M 666 256 L 672 256 L 673 257 L 676 257 L 677 258 L 682 260 L 689 267 L 689 268 L 691 270 L 691 271 L 693 274 L 693 276 L 694 277 L 694 282 L 695 283 L 695 286 L 694 287 L 694 293 L 693 294 L 692 299 L 690 302 L 690 304 L 687 308 L 686 311 L 682 316 L 682 317 L 675 325 L 672 325 L 671 324 L 671 323 L 669 321 L 669 320 L 661 311 L 661 310 L 646 295 L 645 295 L 640 290 L 639 290 L 636 287 L 635 287 L 632 284 L 631 284 L 630 283 L 630 280 L 642 268 L 643 268 L 646 265 L 647 265 L 652 261 L 653 261 L 656 259 L 661 258 L 662 257 L 665 257 Z M 357 256 L 358 257 L 362 257 L 363 258 L 365 258 L 366 259 L 373 262 L 375 264 L 376 264 L 380 268 L 381 268 L 393 280 L 393 283 L 391 285 L 390 285 L 388 287 L 387 287 L 383 291 L 382 291 L 377 296 L 376 296 L 362 310 L 362 311 L 357 316 L 357 317 L 354 320 L 354 321 L 350 325 L 348 325 L 344 321 L 344 320 L 341 317 L 341 316 L 337 311 L 337 310 L 331 299 L 331 297 L 330 296 L 330 293 L 329 292 L 329 277 L 330 276 L 330 274 L 331 273 L 333 268 L 341 260 L 342 260 L 347 257 L 350 257 L 351 256 Z" fill-rule="evenodd" stroke="none" /></svg>